<svg width="162" height="122" viewBox="0 0 162 122" fill="none" xmlns="http://www.w3.org/2000/svg">
<g clip-path="url(#clip0_22_6)">
<path d="M36.8183 121.399V58.876L17.4068 41.1367L0 31.2927V110.366C0 116.471 4.95176 121.399 11.0457 121.399H36.8183Z" fill="#4285F4"/>
<path d="M125.182 121.4H150.954C157.067 121.4 162 116.452 162 110.366V31.2933L142.284 42.5685L125.182 58.8761V121.4Z" fill="#34A853"/>
<path d="M36.8183 58.8761L34.1769 34.4463L36.8183 11.0647L81 44.1653L125.182 11.0647L128.136 33.184L125.182 58.8761L81 91.9766L36.8183 58.8761Z" fill="#EA4335"/>
<path d="M125.182 11.0647V58.876L162 31.2927V16.5812C162 2.93684 146.408 -4.84145 135.491 3.3414L125.182 11.0647Z" fill="#FBBC04"/>
<path d="M0 31.2928L16.9334 43.9795L36.8183 58.8762V11.0648L26.5085 3.3415C15.5735 -4.84198 0 2.93694 0 16.5807V31.2928Z" fill="#C5221F"/>
</g>
<defs>
<clipPath id="clip0_22_6">
<rect width="162" height="122" fill="white"/>
</clipPath>
</defs>
</svg>
